<svg width="1200" height="1040" xmlns="http://www.w3.org/2000/svg"><title>OXO Solutions Logo Vector Hign Resolutions</title><g id="svg_1" fill="#168dc5" transform="translate(0,1500) scale(0.10000000149011612,-0.10000000149011612)"><path id="svg_2" d="m6780 14933c0-12 43-171 96-355 140-487 379-1447 544-2182 25-112 26-110-54-121-118-15-907-162-1368-255-772-155-1449-307-2180-490-197-50-364-90-371-90-8 0-22 33-36 88-97 374-314 1101-456 1527-169 505-347 947-419 1040-15 20-15 20-16-2 0-12 43-171 96-355 103-359 258-960 379-1473 76-320 205-880 205-888 0-3-37-15-82-27-1081-286-2256-644-2798-853-108-41-247-104-272-122-23-17-22-17 27-11 28 3 230 53 450 111 489 129 1163 298 1585 399 470 112 1143 267 1145 264 19-28 815-3795 815-3858 0-11-6-20-13-20-35 0-903-243-1417-396-833-249-1556-501-1662-579-23-17-22-17 27-11 28 3 230 53 450 111 962 253 2625 655 2658 642 8-3 39-141 81-358 153-793 214-1159 277-1658 22-179 44-332 49-340 13-22 13 540 0 749-26 440-91 1058-160 1524-11 76-19 140-18 141 5 4 918 205 1563 345 823 178 2417 510 2446 510 21 0 14 26 93-381 155-794 223-1205 287-1708 22-179 44-332 49-340 13-22 13 540 0 749-27 450-90 1044-164 1555-14 93-23 171-21 173 18 19 1716 342 2340 446 275 46 983 156 1004 156 6 0 11 5 11 12 0 8-58 9-226 4-654-19-1783-150-2983-345-102-17-186-29-187-28-1 1-20 115-42 252-164 998-438 2307-691 3306l-78 307 156 31c659 134 1604 312 2106 395 275 46 983 156 1004 156 6 0 11 5 11 12 0 8-58 9-226 4-646-19-1819-154-2954-341-84-14-155-23-157-22-1 2-25 86-53 186-230 836-481 1613-675 2086-58 143-132 295-159 330-15 20-15 20-16-2zm724-2907c59-238 498-2287 7e2-3276 59-283 108-525 111-537 4-19 0-23-27-28-1201-208-2424-466-3582-756-219-55-4e2-98-401-97-1 2-23 129-49 283-165 1010-438 2319-687 3304-38 151-68 275-67 276 16 13 2220 487 3398 731 151 31 345 71 430 89 85 19 158 34 161 34 4 1 10-10 13-23z"/><path id="svg_3" d="m7060 11597c-71-56-247-243-396-422-225-271-515-672-741-1025-58-91-106-166-107-167-1-1-58 35-127 81-574 383-1260 754-1632 882-181 63-170 46 55-84 86-51 233-140 325-198 390-248 1270-847 1266-862-1-4-30-55-64-112-332-558-637-1188-789-1626-56-162-113-369-108-386 2-6 32 52 67 128 104 229 268 533 561 1034 134 229 498 842 504 848 2 1 150-101 329-227 786-556 1140-821 1392-1043 55-48 104-88 108-88 5 0-6 19-24 43-209 268-544 595-955 933-126 103-527 408-672 510l-72 51 208 339c362 589 640 1018 830 1279 86 118 110 155 101 155-2 0-29-20-59-43z"/><path id="svg_4" d="m9748 11980c-409-48-779-298-1013-684-107-176-189-411-220-634-25-176-17-448 19-618 123-585 515-1055 1021-1223 158-52 235-64 410-64 175 0 253 12 410 64 315 105 598 351 783 679 86 154 159 380 188 590 19 137 14 418-9 545-70 375-229 686-472 930-313 312-715 461-1117 415zm346-215c415-72 798-403 967-835 220-561 118-1182-264-1597-139-152-352-280-552-333-268-70-530-42-791 85-207 101-397 272-530 477-103 159-183 365-220 563-26 138-26 442-1 570 99 491 406 874 822 1024 161 58 391 77 569 46z"/><path id="svg_5" d="m1798 10370c-409-48-779-298-1013-684-107-176-189-411-220-634-25-176-17-448 19-618 123-585 515-1055 1021-1223 158-52 235-64 410-64 175 0 253 12 410 64 315 105 598 351 783 679 86 154 159 380 188 590 19 137 14 418-9 545-70 375-229 686-472 930-313 312-715 461-1117 415zm346-215c415-72 798-403 967-835 220-561 118-1182-264-1597-139-152-352-280-552-333-268-70-530-42-791 85-207 101-397 272-530 477-103 159-183 365-220 563-26 138-26 442-1 570 99 491 406 874 822 1024 161 58 391 77 569 46z"/></g></svg>